<svg xmlns="http://www.w3.org/2000/svg" xmlns:xlink="http://www.w3.org/1999/xlink" width="800" zoomAndPan="magnify" viewBox="0 0 600 599.999999" height="800" preserveAspectRatio="xMidYMid meet" version="1.0"><defs><g/><clipPath id="9cb996acfd"><path d="M 300 0 C 134.316406 0 0 134.316406 0 300 C 0 465.683594 134.316406 600 300 600 C 465.683594 600 600 465.683594 600 300 C 600 134.316406 465.683594 0 300 0 Z M 300 0 " clip-rule="nonzero"/></clipPath><clipPath id="68f6a09369"><path d="M 0 0 L 600 0 L 600 600 L 0 600 Z M 0 0 " clip-rule="nonzero"/></clipPath><clipPath id="c1fd2b369c"><path d="M 300 0 C 134.316406 0 0 134.316406 0 300 C 0 465.683594 134.316406 600 300 600 C 465.683594 600 600 465.683594 600 300 C 600 134.316406 465.683594 0 300 0 Z M 300 0 " clip-rule="nonzero"/></clipPath><clipPath id="4b5288b6f3"><rect x="0" width="600" y="0" height="600"/></clipPath></defs><g clip-path="url(#9cb996acfd)"><g transform="matrix(1, 0, 0, 1, 0, -0.000000000000034788)"><g clip-path="url(#4b5288b6f3)"><g clip-path="url(#68f6a09369)"><g clip-path="url(#c1fd2b369c)"><rect x="-132" width="864" fill="#10b981" height="863.999999" y="-132" fill-opacity="1"/></g></g></g></g></g><g fill="#ffffff" fill-opacity="1"><g transform="translate(169.921867, 441.375005)"><g><path d="M 190.796875 -73.5625 L 197.6875 -78.546875 C 206.375 -83.648438 212.503906 -86.203125 216.078125 -86.203125 C 223.992188 -86.203125 232.550781 -79.050781 241.75 -64.75 C 247.375 -55.8125 250.1875 -48.660156 250.1875 -43.296875 C 250.1875 -37.929688 248.460938 -33.457031 245.015625 -29.875 C 241.566406 -26.300781 237.539062 -23.109375 232.9375 -20.296875 C 228.34375 -17.492188 223.9375 -14.8125 219.71875 -12.25 C 215.507812 -9.695312 206.890625 -6.378906 193.859375 -2.296875 C 180.835938 1.785156 168.257812 3.828125 156.125 3.828125 C 143.988281 3.828125 131.726562 2.234375 119.34375 -0.953125 C 106.957031 -4.148438 94.1875 -9.515625 81.03125 -17.046875 C 67.875 -24.578125 56.0625 -33.769531 45.59375 -44.625 C 35.125 -55.488281 26.503906 -69.410156 19.734375 -86.390625 C 12.960938 -103.378906 9.578125 -121.832031 9.578125 -141.75 C 9.578125 -161.675781 12.894531 -179.75 19.53125 -195.96875 C 26.175781 -212.1875 34.671875 -225.59375 45.015625 -236.1875 C 55.359375 -246.789062 67.171875 -255.671875 80.453125 -262.828125 C 105.484375 -276.617188 130.644531 -283.515625 155.9375 -283.515625 C 167.9375 -283.515625 180.128906 -281.660156 192.515625 -277.953125 C 204.910156 -274.253906 214.300781 -270.488281 220.6875 -266.65625 L 229.875 -261.296875 C 234.46875 -258.484375 238.046875 -256.179688 240.609375 -254.390625 C 247.242188 -249.023438 250.5625 -242.957031 250.5625 -236.1875 C 250.5625 -229.425781 247.878906 -222.34375 242.515625 -214.9375 C 232.554688 -201.144531 223.617188 -194.25 215.703125 -194.25 C 211.097656 -194.25 204.582031 -197.054688 196.15625 -202.671875 C 185.425781 -211.359375 171.125 -215.703125 153.25 -215.703125 C 136.644531 -215.703125 120.296875 -209.953125 104.203125 -198.453125 C 96.546875 -192.835938 90.160156 -184.921875 85.046875 -174.703125 C 79.941406 -164.484375 77.390625 -152.925781 77.390625 -140.03125 C 77.390625 -127.132812 79.941406 -115.578125 85.046875 -105.359375 C 90.160156 -95.140625 96.675781 -87.09375 104.59375 -81.21875 C 120.175781 -69.976562 136.394531 -64.359375 153.25 -64.359375 C 161.164062 -64.359375 168.632812 -65.378906 175.65625 -67.421875 C 182.6875 -69.472656 187.734375 -71.519531 190.796875 -73.5625 Z M 190.796875 -73.5625 "/></g></g></g></svg>